<svg width="97.000000" height="30.000046" viewBox="0 0 97 30" fill="none" xmlns="http://www.w3.org/2000/svg" xmlns:xlink="http://www.w3.org/1999/xlink">
	<desc>
			Created with Pixso.
	</desc>
	<defs/>
	<rect rx="-0.500000" width="96.000000" height="29.000000" transform="translate(0.500000 0.500000)" fill="#FFFFFF" fill-opacity="0"/>
	<path d="M65.58 9.56C65.15 5.54 62.64 2.14 59.01 0.71C55.38 -0.72 51.26 0.04 48.34 2.61C46.58 1.07 44.3 0.15 41.92 0.04C39.1 -0.1 36.43 0.87 34.4 2.77C32.5 4.53 31.34 6.97 31.11 9.61C31 10.93 31.13 12.24 31.57 13.65L13.87 13.61C13.39 13.61 13 13.83 12.77 14.21C12.52 14.64 12.52 15.17 12.77 15.6C13 15.98 13.39 16.2 13.87 16.2L33.44 16.25C33.89 16.25 34.26 16.05 34.49 15.71C34.74 15.33 34.78 14.79 34.58 14.35C33.05 10.88 33.62 7.21 36.06 4.8C37.57 3.33 39.55 2.57 41.63 2.63C43.82 2.7 45.92 3.71 47.38 5.36C47.61 5.61 47.95 5.76 48.34 5.76C48.72 5.76 49.07 5.63 49.29 5.36C51.55 2.81 54.95 1.92 58.01 3.08C60.7 4.11 62.64 6.68 62.96 9.63C63.05 10.48 63.83 10.9 64.53 10.84C65.22 10.75 65.65 10.23 65.58 9.56Z" fill="#2A2A2A" fill-opacity="1.000000" fill-rule="nonzero"/>
	<path d="M9.39 26.15L6.25 26.15C5.86 26.15 5.56 25.84 5.56 25.48L5.56 4.2C5.56 3.82 5.88 3.53 6.25 3.53L9.42 3.53C9.8 3.53 10.1 3.84 10.1 4.2L10.1 25.48C10.08 25.84 9.78 26.15 9.39 26.15Z" fill="#2A2A2A" fill-opacity="1.000000" fill-rule="nonzero"/>
	<path d="M3.87 23.49L0.68 23.49C0.31 23.49 0 23.2 0 22.82L0 6.79C0 6.43 0.29 6.12 0.68 6.12L3.87 6.12C4.24 6.12 4.56 6.41 4.56 6.79L4.56 22.82C4.56 23.2 4.26 23.49 3.87 23.49Z" fill="#2A2A2A" fill-opacity="1.000000" fill-rule="nonzero"/>
	<path d="M14.91 28.45L11.77 28.45C11.38 28.45 11.06 28.14 11.06 27.76L11.06 1.87C11.06 1.49 11.38 1.18 11.77 1.18L14.91 1.18C15.3 1.18 15.62 1.49 15.62 1.87L15.62 27.78C15.62 28.16 15.3 28.45 14.91 28.45Z" fill="#2A2A2A" fill-opacity="1.000000" fill-rule="nonzero"/>
	<path d="M82.96 14.21C82.74 13.83 82.35 13.61 81.87 13.61L63.32 13.65C62.91 13.65 62.36 13.88 62.16 14.32C60.06 18.88 55.82 22.3 52.78 24.5C51.44 25.46 50.09 26.35 48.75 27.16L48.61 27.22C48.4 27.33 48.4 27.33 48.22 27.27C47.7 27.07 47.17 26.71 46.67 26.37C46.46 26.24 46.26 26.11 46.08 25.97C44.71 25.1 43.52 24.27 42.43 23.44C40.26 21.77 38.48 20.09 36.97 18.26C36.54 17.72 35.86 17.65 35.31 18.08C34.76 18.5 34.51 19.35 35.06 20.02C36.52 21.79 38.25 23.47 40.37 25.12C41.61 26.08 42.91 27.02 44.25 27.89C44.94 28.34 45.67 28.79 46.42 29.24L46.58 29.32C47.1 29.64 47.7 30 48.4 30C48.54 30 48.7 29.97 48.86 29.95C49.43 29.82 49.98 29.46 50.48 29.15C50.62 29.06 50.73 28.97 50.87 28.9C51.67 28.41 52.46 27.87 53.26 27.33C55.5 25.79 57.39 24.27 59.08 22.68C61.38 20.49 63.05 18.37 64.17 16.25L81.87 16.2C82.35 16.2 82.74 15.98 82.96 15.6C83.22 15.17 83.22 14.64 82.96 14.21Z" fill="#FBF138" fill-opacity="1.000000" fill-rule="nonzero"/>
	<path d="M87.6 26.15L90.77 26.15C91.15 26.15 91.45 25.84 91.45 25.48L91.45 4.2C91.45 3.82 91.13 3.53 90.77 3.53L87.6 3.53C87.21 3.53 86.91 3.84 86.91 4.2L86.91 25.48C86.91 25.84 87.21 26.15 87.6 26.15Z" fill="#FBF138" fill-opacity="1.000000" fill-rule="nonzero"/>
	<path d="M93.12 23.49L96.31 23.49C96.68 23.49 97 23.2 97 22.82L97 6.79C97 6.43 96.7 6.12 96.31 6.12L93.12 6.12C92.75 6.12 92.43 6.41 92.43 6.79L92.43 22.82C92.43 23.2 92.73 23.49 93.12 23.49Z" fill="#FBF138" fill-opacity="1.000000" fill-rule="nonzero"/>
	<path d="M82.08 28.45L85.22 28.45C85.61 28.45 85.93 28.14 85.93 27.76L85.93 1.87C85.93 1.49 85.61 1.18 85.22 1.18L82.08 1.18C81.69 1.18 81.37 1.49 81.37 1.87L81.37 27.78C81.37 28.16 81.69 28.45 82.08 28.45Z" fill="#FBF138" fill-opacity="1.000000" fill-rule="nonzero"/>
</svg>
